# xmcd
# 
# Track frame offsets:
#     150
#     11577
#     25893
#     38581
#     49126
#     61672
#     78327
#     90541
#     103008
#     116595
#     128510
#     140223
#     154128
#     166516
#     180412
#     193596
#     207038
#     221135
# 
# Disc length: 3148
# 
# Revision: 2
# Processed by: cddbd v1.5.2PL0 Copyright (c) Steve Scherf et al.
# Submitted via: BonkEnc v1.0.8
# 
DISCID=e50c4a12
DTITLE=ERROL GARNER - PIANO MAN ALBUM UK
DYEAR=0
DGENRE=Jazz
TTITLE0=SHE'S FUNNY THAT WAY
TTITLE1=STORMY WEATHER
TTITLE2=ON THE SUNNY SIDE OF THE STREET
TTITLE3=THIS CAN'T BE LOVE
TTITLE4=LAURA
TTITLE5=STOMPIN AT THE SAVOY
TTITLE6=RED SAILS IN THE SUNSET
TTITLE7=STARDUST
TTITLE8=I SURRENDER DEAR
TTITLE9=MOONGLOW
TTITLE10=I CAN'T BELIEVE THAT YOU'RE IN LOVE WITH ME
TTITLE11=EVERYTHING HAPPENS TO ME
TTITLE12=PERDIDO
TTITLE13=SOFT AND WARM
TTITLE14=BLUE ROOM
TTITLE15=I GET A KICK OUT OF YOU
TTITLE16=THE BLUES I CAN'T FORGET
TTITLE17=BOOGIE WOOGIE BOOGIE
EXTD=
EXTT0=
EXTT1=
EXTT2=
EXTT3=
EXTT4=
EXTT5=
EXTT6=
EXTT7=
EXTT8=
EXTT9=
EXTT10=
EXTT11=
EXTT12=
EXTT13=
EXTT14=
EXTT15=
EXTT16=
EXTT17=
PLAYORDER=
